# xmcd
#
# Track frame offsets: 
#        150
#        13491
#        31689
#        48778
#        61015
#        80721
#        96127
#        116224
#        129379
#        146969
#
# Disc length: 2236 seconds
#
# Revision: 0
# Processed by: cddbd v1.5.2PL0 Copyright (c) Steve Scherf et al.
# Submitted via: ExactAudioCopy v0.99pb4
#
DISCID=8608ba0a
DTITLE=Kings Harmony - Forever Changed
DYEAR=1900
DGENRE=Gospel
TTITLE0=When He Washed My Sins Away
TTITLE1=Forever Changed
TTITLE2=I Am So Glad
TTITLE3=I've Got Something To Shout About
TTITLE4=Other Miracles
TTITLE5=Lord Do It Again
TTITLE6=He Looked Beyond My Faults
TTITLE7=Feelin' Fine
TTITLE8=He's My Saviour
TTITLE9=Redemption Draweth Nigh
EXTD=
EXTT0=
EXTT1=
EXTT2=
EXTT3=
EXTT4=
EXTT5=
EXTT6=
EXTT7=
EXTT8=
EXTT9=
PLAYORDER=
